<?xml version="1.0" standalone="no"?>
<svg xmlns="http://www.w3.org/2000/svg" width="1024" height="1024" viewBox="0 0 1024 1024"><defs><clipPath id="clip-path-dot-color"><rect x="64" y="374" width="27.900000000000002" height="27.900000000000002" transform="rotate(10.125,75.95,385.95)"/><rect x="64" y="405" width="27.900000000000002" height="27.900000000000002" transform="rotate(-5.625,75.95,416.95)"/><rect x="64" y="622" width="27.900000000000002" height="27.900000000000002" transform="rotate(4.5,75.95,633.95)"/><rect x="64" y="684" width="27.900000000000002" height="27.900000000000002" transform="rotate(-10.125,75.95,695.95)"/><rect x="95" y="312" width="27.900000000000002" height="27.900000000000002" transform="rotate(9,106.95,323.95)"/><rect x="95" y="529" width="27.900000000000002" height="27.900000000000002" transform="rotate(9,106.95,540.95)"/><rect x="95" y="622" width="27.900000000000002" height="27.900000000000002" transform="rotate(9,106.95,633.95)"/><rect x="95" y="653" width="27.900000000000002" height="27.900000000000002" transform="rotate(-4.5,106.95,664.95)"/><rect x="95" y="684" width="27.900000000000002" height="27.900000000000002" transform="rotate(-11.25,106.95,695.95)"/><rect x="126" y="312" width="27.900000000000002" height="27.900000000000002" transform="rotate(6.75,137.95,323.95)"/><rect x="126" y="343" width="27.900000000000002" height="27.900000000000002" transform="rotate(-3.375,137.95,354.95)"/><rect x="126" y="436" width="27.900000000000002" height="27.900000000000002" transform="rotate(9,137.95,447.95)"/><rect x="126" y="498" width="27.900000000000002" height="27.900000000000002" transform="rotate(-6.75,137.95,509.95)"/><rect x="126" y="529" width="27.900000000000002" height="27.900000000000002" transform="rotate(-6.75,137.95,540.95)"/><rect x="126" y="684" width="27.900000000000002" height="27.900000000000002" transform="rotate(-5.625,137.95,695.95)"/><rect x="157" y="374" width="27.900000000000002" height="27.900000000000002" transform="rotate(-3.375,168.95,385.95)"/><rect x="157" y="405" width="27.900000000000002" height="27.900000000000002" transform="rotate(-6.75,168.95,416.95)"/><rect x="157" y="498" width="27.900000000000002" height="27.900000000000002" transform="rotate(-3.375,168.95,509.95)"/><rect x="157" y="529" width="27.900000000000002" height="27.900000000000002" transform="rotate(-4.5,168.95,540.95)"/><rect x="157" y="591" width="27.900000000000002" height="27.900000000000002" transform="rotate(-2.25,168.95,602.95)"/><rect x="157" y="653" width="27.900000000000002" height="27.900000000000002" transform="rotate(10.125,168.95,664.95)"/><rect x="188" y="343" width="27.900000000000002" height="27.900000000000002" transform="rotate(-3.375,199.95,354.95)"/><rect x="188" y="374" width="27.900000000000002" height="27.900000000000002" transform="rotate(4.5,199.95,385.95)"/><rect x="188" y="436" width="27.900000000000002" height="27.900000000000002" transform="rotate(10.125,199.95,447.95)"/><rect x="188" y="498" width="27.900000000000002" height="27.900000000000002" transform="rotate(-4.5,199.95,509.95)"/><rect x="188" y="591" width="27.900000000000002" height="27.900000000000002" transform="rotate(-5.625,199.95,602.95)"/><rect x="188" y="622" width="27.900000000000002" height="27.900000000000002" transform="rotate(6.75,199.95,633.95)"/><rect x="188" y="653" width="27.900000000000002" height="27.900000000000002" transform="rotate(-10.125,199.95,664.95)"/><rect x="219" y="343" width="27.900000000000002" height="27.900000000000002" transform="rotate(-3.375,230.95,354.95)"/><rect x="219" y="405" width="27.900000000000002" height="27.900000000000002" transform="rotate(-2.25,230.95,416.95)"/><rect x="219" y="467" width="27.900000000000002" height="27.900000000000002" transform="rotate(-10.125,230.95,478.95)"/><rect x="219" y="498" width="27.900000000000002" height="27.900000000000002" transform="rotate(-5.625,230.95,509.95)"/><rect x="219" y="560" width="27.900000000000002" height="27.900000000000002" transform="rotate(3.375,230.95,571.95)"/><rect x="219" y="653" width="27.900000000000002" height="27.900000000000002" transform="rotate(5.625,230.95,664.95)"/><rect x="250" y="312" width="27.900000000000002" height="27.900000000000002" transform="rotate(-5.625,261.95,323.95)"/><rect x="250" y="374" width="27.900000000000002" height="27.900000000000002" transform="rotate(-9,261.95,385.95)"/><rect x="250" y="436" width="27.900000000000002" height="27.900000000000002" transform="rotate(5.625,261.95,447.95)"/><rect x="250" y="498" width="27.900000000000002" height="27.900000000000002" transform="rotate(3.375,261.95,509.95)"/><rect x="250" y="560" width="27.900000000000002" height="27.900000000000002" transform="rotate(3.375,261.95,571.95)"/><rect x="250" y="622" width="27.900000000000002" height="27.900000000000002" transform="rotate(5.625,261.95,633.95)"/><rect x="250" y="684" width="27.900000000000002" height="27.900000000000002" transform="rotate(9,261.95,695.95)"/><rect x="281" y="343" width="27.900000000000002" height="27.900000000000002" transform="rotate(10.125,292.95,354.95)"/><rect x="281" y="405" width="27.900000000000002" height="27.900000000000002" transform="rotate(-10.125,292.95,416.95)"/><rect x="281" y="467" width="27.900000000000002" height="27.900000000000002" transform="rotate(11.25,292.95,478.95)"/><rect x="281" y="498" width="27.900000000000002" height="27.900000000000002" transform="rotate(5.625,292.95,509.95)"/><rect x="281" y="529" width="27.900000000000002" height="27.900000000000002" transform="rotate(-5.625,292.95,540.95)"/><rect x="281" y="560" width="27.900000000000002" height="27.900000000000002" transform="rotate(-5.625,292.95,571.95)"/><rect x="281" y="591" width="27.900000000000002" height="27.900000000000002" transform="rotate(5.625,292.95,602.95)"/><rect x="281" y="622" width="27.900000000000002" height="27.900000000000002" transform="rotate(-10.125,292.95,633.95)"/><rect x="281" y="653" width="27.900000000000002" height="27.900000000000002" transform="rotate(-2.25,292.95,664.95)"/><rect x="281" y="684" width="27.900000000000002" height="27.900000000000002" transform="rotate(2.25,292.95,695.95)"/><rect x="312" y="95" width="27.900000000000002" height="27.900000000000002" transform="rotate(9,323.95,106.95)"/><rect x="312" y="126" width="27.900000000000002" height="27.900000000000002" transform="rotate(6.75,323.95,137.95)"/><rect x="312" y="157" width="27.900000000000002" height="27.900000000000002" transform="rotate(-4.5,323.95,168.95)"/><rect x="312" y="219" width="27.900000000000002" height="27.900000000000002" transform="rotate(-2.25,323.95,230.95)"/><rect x="312" y="250" width="27.900000000000002" height="27.900000000000002" transform="rotate(-5.625,323.95,261.95)"/><rect x="312" y="343" width="27.900000000000002" height="27.900000000000002" transform="rotate(-5.625,323.95,354.95)"/><rect x="312" y="374" width="27.900000000000002" height="27.900000000000002" transform="rotate(6.75,323.95,385.95)"/><rect x="312" y="405" width="27.900000000000002" height="27.900000000000002" transform="rotate(-6.75,323.95,416.95)"/><rect x="312" y="467" width="27.900000000000002" height="27.900000000000002" transform="rotate(4.5,323.95,478.95)"/><rect x="312" y="529" width="27.900000000000002" height="27.900000000000002" transform="rotate(5.625,323.95,540.95)"/><rect x="312" y="653" width="27.900000000000002" height="27.900000000000002" transform="rotate(11.25,323.95,664.95)"/><rect x="312" y="870" width="27.900000000000002" height="27.900000000000002" transform="rotate(3.375,323.95,881.95)"/><rect x="312" y="901" width="27.900000000000002" height="27.900000000000002" transform="rotate(-5.625,323.95,912.95)"/><rect x="343" y="95" width="27.900000000000002" height="27.900000000000002" transform="rotate(10.125,354.95,106.95)"/><rect x="343" y="126" width="27.900000000000002" height="27.900000000000002" transform="rotate(-3.375,354.95,137.95)"/><rect x="343" y="188" width="27.900000000000002" height="27.900000000000002" transform="rotate(-3.375,354.95,199.95)"/><rect x="343" y="219" width="27.900000000000002" height="27.900000000000002" transform="rotate(-3.375,354.95,230.95)"/><rect x="343" y="312" width="27.900000000000002" height="27.900000000000002" transform="rotate(-5.625,354.95,323.95)"/><rect x="343" y="405" width="27.900000000000002" height="27.900000000000002" transform="rotate(5.625,354.95,416.95)"/><rect x="343" y="436" width="27.900000000000002" height="27.900000000000002" transform="rotate(9,354.95,447.95)"/><rect x="343" y="467" width="27.900000000000002" height="27.900000000000002" transform="rotate(-9,354.95,478.95)"/><rect x="343" y="498" width="27.900000000000002" height="27.900000000000002" transform="rotate(11.25,354.95,509.95)"/><rect x="343" y="591" width="27.900000000000002" height="27.900000000000002" transform="rotate(11.25,354.95,602.95)"/><rect x="343" y="777" width="27.900000000000002" height="27.900000000000002" transform="rotate(-3.375,354.95,788.95)"/><rect x="343" y="808" width="27.900000000000002" height="27.900000000000002" transform="rotate(3.375,354.95,819.95)"/><rect x="343" y="870" width="27.900000000000002" height="27.900000000000002" transform="rotate(-5.625,354.95,881.95)"/><rect x="343" y="932" width="27.900000000000002" height="27.900000000000002" transform="rotate(-9,354.95,943.95)"/><rect x="374" y="64" width="27.900000000000002" height="27.900000000000002" transform="rotate(10.125,385.95,75.95)"/><rect x="374" y="126" width="27.900000000000002" height="27.900000000000002" transform="rotate(-6.75,385.95,137.95)"/><rect x="374" y="157" width="27.900000000000002" height="27.900000000000002" transform="rotate(-3.375,385.95,168.95)"/><rect x="374" y="188" width="27.900000000000002" height="27.900000000000002" transform="rotate(4.5,385.95,199.95)"/><rect x="374" y="250" width="27.900000000000002" height="27.900000000000002" transform="rotate(-9,385.95,261.95)"/><rect x="374" y="281" width="27.900000000000002" height="27.900000000000002" transform="rotate(-9,385.95,292.95)"/><rect x="374" y="312" width="27.900000000000002" height="27.900000000000002" transform="rotate(6.75,385.95,323.95)"/><rect x="374" y="343" width="27.900000000000002" height="27.900000000000002" transform="rotate(-5.625,385.95,354.95)"/><rect x="374" y="374" width="27.900000000000002" height="27.900000000000002" transform="rotate(6.75,385.95,385.95)"/><rect x="374" y="405" width="27.900000000000002" height="27.900000000000002" transform="rotate(-6.75,385.95,416.95)"/><rect x="374" y="436" width="27.900000000000002" height="27.900000000000002" transform="rotate(-10.125,385.95,447.95)"/><rect x="374" y="467" width="27.900000000000002" height="27.900000000000002" transform="rotate(11.25,385.95,478.95)"/><rect x="374" y="591" width="27.900000000000002" height="27.900000000000002" transform="rotate(6.75,385.95,602.95)"/><rect x="374" y="746" width="27.900000000000002" height="27.900000000000002" transform="rotate(-11.25,385.95,757.95)"/><rect x="374" y="777" width="27.900000000000002" height="27.900000000000002" transform="rotate(3.375,385.95,788.95)"/><rect x="374" y="839" width="27.900000000000002" height="27.900000000000002" transform="rotate(-9,385.95,850.95)"/><rect x="374" y="901" width="27.900000000000002" height="27.900000000000002" transform="rotate(4.5,385.95,912.95)"/><rect x="405" y="64" width="27.900000000000002" height="27.900000000000002" transform="rotate(-5.625,416.95,75.95)"/><rect x="405" y="126" width="27.900000000000002" height="27.900000000000002" transform="rotate(-4.5,416.95,137.95)"/><rect x="405" y="219" width="27.900000000000002" height="27.900000000000002" transform="rotate(-2.25,416.95,230.95)"/><rect x="405" y="312" width="27.900000000000002" height="27.900000000000002" transform="rotate(-6.75,416.95,323.95)"/><rect x="405" y="374" width="27.900000000000002" height="27.900000000000002" transform="rotate(-6.75,416.95,385.95)"/><rect x="405" y="436" width="27.900000000000002" height="27.900000000000002" transform="rotate(2.25,416.95,447.95)"/><rect x="405" y="622" width="27.900000000000002" height="27.900000000000002" transform="rotate(-10.125,416.95,633.95)"/><rect x="405" y="684" width="27.900000000000002" height="27.900000000000002" transform="rotate(-5.625,416.95,695.95)"/><rect x="405" y="777" width="27.900000000000002" height="27.900000000000002" transform="rotate(5.625,416.95,788.95)"/><rect x="405" y="932" width="27.900000000000002" height="27.900000000000002" transform="rotate(11.25,416.95,943.95)"/><rect x="436" y="126" width="27.900000000000002" height="27.900000000000002" transform="rotate(9,447.95,137.95)"/><rect x="436" y="157" width="27.900000000000002" height="27.900000000000002" transform="rotate(5.625,447.95,168.95)"/><rect x="436" y="188" width="27.900000000000002" height="27.900000000000002" transform="rotate(10.125,447.95,199.95)"/><rect x="436" y="250" width="27.900000000000002" height="27.900000000000002" transform="rotate(5.625,447.95,261.95)"/><rect x="436" y="281" width="27.900000000000002" height="27.900000000000002" transform="rotate(-5.625,447.95,292.95)"/><rect x="436" y="343" width="27.900000000000002" height="27.900000000000002" transform="rotate(9,447.95,354.95)"/><rect x="436" y="498" width="27.900000000000002" height="27.900000000000002" transform="rotate(4.5,447.95,509.95)"/><rect x="436" y="529" width="27.900000000000002" height="27.900000000000002" transform="rotate(-11.25,447.95,540.95)"/><rect x="436" y="560" width="27.900000000000002" height="27.900000000000002" transform="rotate(9,447.95,571.95)"/><rect x="436" y="591" width="27.900000000000002" height="27.900000000000002" transform="rotate(3.375,447.95,602.95)"/><rect x="436" y="622" width="27.900000000000002" height="27.900000000000002" transform="rotate(-5.625,447.95,633.95)"/><rect x="436" y="684" width="27.900000000000002" height="27.900000000000002" transform="rotate(-9,447.95,695.95)"/><rect x="436" y="715" width="27.900000000000002" height="27.900000000000002" transform="rotate(-9,447.95,726.95)"/><rect x="436" y="777" width="27.900000000000002" height="27.900000000000002" transform="rotate(-9,447.95,788.95)"/><rect x="436" y="839" width="27.900000000000002" height="27.900000000000002" transform="rotate(-11.25,447.95,850.95)"/><rect x="436" y="901" width="27.900000000000002" height="27.900000000000002" transform="rotate(-9,447.95,912.95)"/><rect x="436" y="932" width="27.900000000000002" height="27.900000000000002" transform="rotate(-6.75,447.95,943.95)"/><rect x="467" y="95" width="27.900000000000002" height="27.900000000000002" transform="rotate(11.25,478.95,106.95)"/><rect x="467" y="126" width="27.900000000000002" height="27.900000000000002" transform="rotate(-11.25,478.95,137.95)"/><rect x="467" y="312" width="27.900000000000002" height="27.900000000000002" transform="rotate(4.5,478.95,323.95)"/><rect x="467" y="343" width="27.900000000000002" height="27.900000000000002" transform="rotate(-9,478.95,354.95)"/><rect x="467" y="436" width="27.900000000000002" height="27.900000000000002" transform="rotate(3.375,478.95,447.95)"/><rect x="467" y="529" width="27.900000000000002" height="27.900000000000002" transform="rotate(-3.375,478.95,540.95)"/><rect x="467" y="653" width="27.900000000000002" height="27.900000000000002" transform="rotate(-3.375,478.95,664.95)"/><rect x="467" y="746" width="27.900000000000002" height="27.900000000000002" transform="rotate(-2.25,478.95,757.95)"/><rect x="467" y="777" width="27.900000000000002" height="27.900000000000002" transform="rotate(-10.125,478.95,788.95)"/><rect x="467" y="839" width="27.900000000000002" height="27.900000000000002" transform="rotate(-9,478.95,850.95)"/><rect x="467" y="870" width="27.900000000000002" height="27.900000000000002" transform="rotate(10.125,478.95,881.95)"/><rect x="498" y="64" width="27.900000000000002" height="27.900000000000002" transform="rotate(-11.25,509.95,75.95)"/><rect x="498" y="95" width="27.900000000000002" height="27.900000000000002" transform="rotate(-3.375,509.95,106.95)"/><rect x="498" y="250" width="27.900000000000002" height="27.900000000000002" transform="rotate(3.375,509.95,261.95)"/><rect x="498" y="374" width="27.900000000000002" height="27.900000000000002" transform="rotate(-4.5,509.95,385.95)"/><rect x="498" y="498" width="27.900000000000002" height="27.900000000000002" transform="rotate(-10.125,509.95,509.95)"/><rect x="498" y="529" width="27.900000000000002" height="27.900000000000002" transform="rotate(-3.375,509.95,540.95)"/><rect x="498" y="560" width="27.900000000000002" height="27.900000000000002" transform="rotate(11.25,509.95,571.95)"/><rect x="498" y="591" width="27.900000000000002" height="27.900000000000002" transform="rotate(-5.625,509.95,602.95)"/><rect x="498" y="622" width="27.900000000000002" height="27.900000000000002" transform="rotate(6.75,509.95,633.95)"/><rect x="498" y="653" width="27.900000000000002" height="27.900000000000002" transform="rotate(4.5,509.95,664.95)"/><rect x="498" y="684" width="27.900000000000002" height="27.900000000000002" transform="rotate(5.625,509.95,695.95)"/><rect x="498" y="715" width="27.900000000000002" height="27.900000000000002" transform="rotate(-5.625,509.95,726.95)"/><rect x="498" y="746" width="27.900000000000002" height="27.900000000000002" transform="rotate(-7.875,509.95,757.95)"/><rect x="498" y="777" width="27.900000000000002" height="27.900000000000002" transform="rotate(-4.5,509.95,788.95)"/><rect x="498" y="808" width="27.900000000000002" height="27.900000000000002" transform="rotate(6.75,509.95,819.95)"/><rect x="498" y="839" width="27.900000000000002" height="27.900000000000002" transform="rotate(-5.625,509.95,850.95)"/><rect x="498" y="901" width="27.900000000000002" height="27.900000000000002" transform="rotate(-9,509.95,912.95)"/><rect x="498" y="932" width="27.900000000000002" height="27.900000000000002" transform="rotate(-6.75,509.95,943.95)"/><rect x="529" y="64" width="27.900000000000002" height="27.900000000000002" transform="rotate(2.25,540.95,75.95)"/><rect x="529" y="95" width="27.900000000000002" height="27.900000000000002" transform="rotate(9,540.95,106.95)"/><rect x="529" y="281" width="27.900000000000002" height="27.900000000000002" transform="rotate(-5.625,540.95,292.95)"/><rect x="529" y="343" width="27.900000000000002" height="27.900000000000002" transform="rotate(-2.25,540.95,354.95)"/><rect x="529" y="467" width="27.900000000000002" height="27.900000000000002" transform="rotate(-3.375,540.95,478.95)"/><rect x="529" y="498" width="27.900000000000002" height="27.900000000000002" transform="rotate(-3.375,540.95,509.95)"/><rect x="529" y="560" width="27.900000000000002" height="27.900000000000002" transform="rotate(11.25,540.95,571.95)"/><rect x="529" y="591" width="27.900000000000002" height="27.900000000000002" transform="rotate(5.625,540.95,602.95)"/><rect x="529" y="622" width="27.900000000000002" height="27.900000000000002" transform="rotate(-9,540.95,633.95)"/><rect x="529" y="808" width="27.900000000000002" height="27.900000000000002" transform="rotate(-11.25,540.95,819.95)"/><rect x="529" y="839" width="27.900000000000002" height="27.900000000000002" transform="rotate(-2.25,540.95,850.95)"/><rect x="529" y="901" width="27.900000000000002" height="27.900000000000002" transform="rotate(9,540.95,912.95)"/><rect x="560" y="64" width="27.900000000000002" height="27.900000000000002" transform="rotate(-3.375,571.95,75.95)"/><rect x="560" y="95" width="27.900000000000002" height="27.900000000000002" transform="rotate(-10.125,571.95,106.95)"/><rect x="560" y="126" width="27.900000000000002" height="27.900000000000002" transform="rotate(11.25,571.95,137.95)"/><rect x="560" y="250" width="27.900000000000002" height="27.900000000000002" transform="rotate(3.375,571.95,261.95)"/><rect x="560" y="343" width="27.900000000000002" height="27.900000000000002" transform="rotate(-11.25,571.95,354.95)"/><rect x="560" y="374" width="27.900000000000002" height="27.900000000000002" transform="rotate(2.25,571.95,385.95)"/><rect x="560" y="467" width="27.900000000000002" height="27.900000000000002" transform="rotate(-3.375,571.95,478.95)"/><rect x="560" y="560" width="27.900000000000002" height="27.900000000000002" transform="rotate(5.625,571.95,571.95)"/><rect x="560" y="591" width="27.900000000000002" height="27.900000000000002" transform="rotate(3.375,571.95,602.95)"/><rect x="560" y="622" width="27.900000000000002" height="27.900000000000002" transform="rotate(3.375,571.95,633.95)"/><rect x="560" y="715" width="27.900000000000002" height="27.900000000000002" transform="rotate(-11.25,571.95,726.95)"/><rect x="560" y="777" width="27.900000000000002" height="27.900000000000002" transform="rotate(2.25,571.95,788.95)"/><rect x="560" y="808" width="27.900000000000002" height="27.900000000000002" transform="rotate(-11.25,571.95,819.95)"/><rect x="560" y="839" width="27.900000000000002" height="27.900000000000002" transform="rotate(4.5,571.95,850.95)"/><rect x="591" y="95" width="27.900000000000002" height="27.900000000000002" transform="rotate(-4.5,602.95,106.95)"/><rect x="591" y="126" width="27.900000000000002" height="27.900000000000002" transform="rotate(-2.25,602.95,137.95)"/><rect x="591" y="157" width="27.900000000000002" height="27.900000000000002" transform="rotate(-2.25,602.95,168.95)"/><rect x="591" y="188" width="27.900000000000002" height="27.900000000000002" transform="rotate(-5.625,602.95,199.95)"/><rect x="591" y="560" width="27.900000000000002" height="27.900000000000002" transform="rotate(3.375,602.95,571.95)"/><rect x="591" y="591" width="27.900000000000002" height="27.900000000000002" transform="rotate(5.625,602.95,602.95)"/><rect x="591" y="684" width="27.900000000000002" height="27.900000000000002" transform="rotate(10.125,602.95,695.95)"/><rect x="591" y="777" width="27.900000000000002" height="27.900000000000002" transform="rotate(-9,602.95,788.95)"/><rect x="622" y="64" width="27.900000000000002" height="27.900000000000002" transform="rotate(4.5,633.95,75.95)"/><rect x="622" y="250" width="27.900000000000002" height="27.900000000000002" transform="rotate(5.625,633.95,261.95)"/><rect x="622" y="281" width="27.900000000000002" height="27.900000000000002" transform="rotate(-10.125,633.95,292.95)"/><rect x="622" y="312" width="27.900000000000002" height="27.900000000000002" transform="rotate(2.25,633.95,323.95)"/><rect x="622" y="343" width="27.900000000000002" height="27.900000000000002" transform="rotate(3.375,633.95,354.95)"/><rect x="622" y="374" width="27.900000000000002" height="27.900000000000002" transform="rotate(-5.625,633.95,385.95)"/><rect x="622" y="467" width="27.900000000000002" height="27.900000000000002" transform="rotate(-6.75,633.95,478.95)"/><rect x="622" y="498" width="27.900000000000002" height="27.900000000000002" transform="rotate(6.75,633.95,509.95)"/><rect x="622" y="529" width="27.900000000000002" height="27.900000000000002" transform="rotate(-9,633.95,540.95)"/><rect x="622" y="560" width="27.900000000000002" height="27.900000000000002" transform="rotate(3.375,633.95,571.95)"/><rect x="622" y="591" width="27.900000000000002" height="27.900000000000002" transform="rotate(-9,633.95,602.95)"/><rect x="622" y="746" width="27.900000000000002" height="27.900000000000002" transform="rotate(-4.5,633.95,757.95)"/><rect x="622" y="777" width="27.900000000000002" height="27.900000000000002" transform="rotate(-5.625,633.95,788.95)"/><rect x="622" y="839" width="27.900000000000002" height="27.900000000000002" transform="rotate(6.75,633.95,850.95)"/><rect x="622" y="870" width="27.900000000000002" height="27.900000000000002" transform="rotate(6.75,633.95,881.95)"/><rect x="653" y="157" width="27.900000000000002" height="27.900000000000002" transform="rotate(10.125,664.95,168.95)"/><rect x="653" y="343" width="27.900000000000002" height="27.900000000000002" transform="rotate(11.25,664.95,354.95)"/><rect x="653" y="436" width="27.900000000000002" height="27.900000000000002" transform="rotate(-9,664.95,447.95)"/><rect x="653" y="467" width="27.900000000000002" height="27.900000000000002" transform="rotate(-3.375,664.95,478.95)"/><rect x="653" y="591" width="27.900000000000002" height="27.900000000000002" transform="rotate(-4.5,664.95,602.95)"/><rect x="653" y="653" width="27.900000000000002" height="27.900000000000002" transform="rotate(-11.25,664.95,664.95)"/><rect x="653" y="715" width="27.900000000000002" height="27.900000000000002" transform="rotate(10.125,664.95,726.95)"/><rect x="653" y="746" width="27.900000000000002" height="27.900000000000002" transform="rotate(6.75,664.95,757.95)"/><rect x="653" y="777" width="27.900000000000002" height="27.900000000000002" transform="rotate(3.375,664.95,788.95)"/><rect x="653" y="839" width="27.900000000000002" height="27.900000000000002" transform="rotate(9,664.95,850.95)"/><rect x="653" y="870" width="27.900000000000002" height="27.900000000000002" transform="rotate(6.75,664.95,881.95)"/><rect x="653" y="932" width="27.900000000000002" height="27.900000000000002" transform="rotate(-5.625,664.95,943.95)"/><rect x="684" y="95" width="27.900000000000002" height="27.900000000000002" transform="rotate(-11.25,695.95,106.95)"/><rect x="684" y="126" width="27.900000000000002" height="27.900000000000002" transform="rotate(-5.625,695.95,137.95)"/><rect x="684" y="250" width="27.900000000000002" height="27.900000000000002" transform="rotate(9,695.95,261.95)"/><rect x="684" y="281" width="27.900000000000002" height="27.900000000000002" transform="rotate(2.25,695.95,292.95)"/><rect x="684" y="374" width="27.900000000000002" height="27.900000000000002" transform="rotate(-7.875,695.95,385.95)"/><rect x="684" y="467" width="27.900000000000002" height="27.900000000000002" transform="rotate(-6.75,695.95,478.95)"/><rect x="684" y="498" width="27.900000000000002" height="27.900000000000002" transform="rotate(5.625,695.95,509.95)"/><rect x="684" y="560" width="27.900000000000002" height="27.900000000000002" transform="rotate(7.875,695.95,571.95)"/><rect x="684" y="591" width="27.900000000000002" height="27.900000000000002" transform="rotate(10.125,695.95,602.95)"/><rect x="684" y="622" width="27.900000000000002" height="27.900000000000002" transform="rotate(-7.875,695.95,633.95)"/><rect x="684" y="653" width="27.900000000000002" height="27.900000000000002" transform="rotate(-9,695.95,664.95)"/><rect x="684" y="684" width="27.900000000000002" height="27.900000000000002" transform="rotate(-7.875,695.95,695.95)"/><rect x="684" y="715" width="27.900000000000002" height="27.900000000000002" transform="rotate(-10.125,695.95,726.95)"/><rect x="684" y="746" width="27.900000000000002" height="27.900000000000002" transform="rotate(4.5,695.95,757.95)"/><rect x="684" y="777" width="27.900000000000002" height="27.900000000000002" transform="rotate(-11.25,695.95,788.95)"/><rect x="684" y="808" width="27.900000000000002" height="27.900000000000002" transform="rotate(-3.375,695.95,819.95)"/><rect x="684" y="839" width="27.900000000000002" height="27.900000000000002" transform="rotate(9,695.95,850.95)"/><rect x="684" y="870" width="27.900000000000002" height="27.900000000000002" transform="rotate(-5.625,695.95,881.95)"/><rect x="715" y="312" width="27.900000000000002" height="27.900000000000002" transform="rotate(6.75,726.95,323.95)"/><rect x="715" y="343" width="27.900000000000002" height="27.900000000000002" transform="rotate(4.5,726.95,354.95)"/><rect x="715" y="405" width="27.900000000000002" height="27.900000000000002" transform="rotate(3.375,726.95,416.95)"/><rect x="715" y="467" width="27.900000000000002" height="27.900000000000002" transform="rotate(4.5,726.95,478.95)"/><rect x="715" y="498" width="27.900000000000002" height="27.900000000000002" transform="rotate(-5.625,726.95,509.95)"/><rect x="715" y="622" width="27.900000000000002" height="27.900000000000002" transform="rotate(9,726.95,633.95)"/><rect x="715" y="653" width="27.900000000000002" height="27.900000000000002" transform="rotate(10.125,726.95,664.95)"/><rect x="715" y="684" width="27.900000000000002" height="27.900000000000002" transform="rotate(-10.125,726.95,695.95)"/><rect x="715" y="808" width="27.900000000000002" height="27.900000000000002" transform="rotate(9,726.95,819.95)"/><rect x="715" y="839" width="27.900000000000002" height="27.900000000000002" transform="rotate(10.125,726.95,850.95)"/><rect x="715" y="932" width="27.900000000000002" height="27.900000000000002" transform="rotate(4.5,726.95,943.95)"/><rect x="746" y="374" width="27.900000000000002" height="27.900000000000002" transform="rotate(-11.25,757.95,385.95)"/><rect x="746" y="405" width="27.900000000000002" height="27.900000000000002" transform="rotate(3.375,757.95,416.95)"/><rect x="746" y="436" width="27.900000000000002" height="27.900000000000002" transform="rotate(5.625,757.95,447.95)"/><rect x="746" y="467" width="27.900000000000002" height="27.900000000000002" transform="rotate(-2.25,757.95,478.95)"/><rect x="746" y="498" width="27.900000000000002" height="27.900000000000002" transform="rotate(-7.875,757.95,509.95)"/><rect x="746" y="560" width="27.900000000000002" height="27.900000000000002" transform="rotate(-5.625,757.95,571.95)"/><rect x="746" y="591" width="27.900000000000002" height="27.900000000000002" transform="rotate(-11.25,757.95,602.95)"/><rect x="746" y="653" width="27.900000000000002" height="27.900000000000002" transform="rotate(6.75,757.95,664.95)"/><rect x="746" y="684" width="27.900000000000002" height="27.900000000000002" transform="rotate(4.5,757.95,695.95)"/><rect x="746" y="746" width="27.900000000000002" height="27.900000000000002" transform="rotate(-3.375,757.95,757.95)"/><rect x="746" y="808" width="27.900000000000002" height="27.900000000000002" transform="rotate(-5.625,757.95,819.95)"/><rect x="746" y="870" width="27.900000000000002" height="27.900000000000002" transform="rotate(10.125,757.95,881.95)"/><rect x="777" y="312" width="27.900000000000002" height="27.900000000000002" transform="rotate(-9,788.95,323.95)"/><rect x="777" y="374" width="27.900000000000002" height="27.900000000000002" transform="rotate(3.375,788.95,385.95)"/><rect x="777" y="405" width="27.900000000000002" height="27.900000000000002" transform="rotate(5.625,788.95,416.95)"/><rect x="777" y="467" width="27.900000000000002" height="27.900000000000002" transform="rotate(-10.125,788.95,478.95)"/><rect x="777" y="529" width="27.900000000000002" height="27.900000000000002" transform="rotate(3.375,788.95,540.95)"/><rect x="777" y="622" width="27.900000000000002" height="27.900000000000002" transform="rotate(-5.625,788.95,633.95)"/><rect x="777" y="684" width="27.900000000000002" height="27.900000000000002" transform="rotate(-11.25,788.95,695.95)"/><rect x="777" y="808" width="27.900000000000002" height="27.900000000000002" transform="rotate(-4.5,788.95,819.95)"/><rect x="777" y="901" width="27.900000000000002" height="27.900000000000002" transform="rotate(-11.25,788.95,912.95)"/><rect x="808" y="374" width="27.900000000000002" height="27.900000000000002" transform="rotate(-6.75,819.95,385.95)"/><rect x="808" y="405" width="27.900000000000002" height="27.900000000000002" transform="rotate(4.5,819.95,416.95)"/><rect x="808" y="467" width="27.900000000000002" height="27.900000000000002" transform="rotate(-2.25,819.95,478.95)"/><rect x="808" y="622" width="27.900000000000002" height="27.900000000000002" transform="rotate(-5.625,819.95,633.95)"/><rect x="808" y="684" width="27.900000000000002" height="27.900000000000002" transform="rotate(-3.375,819.95,695.95)"/><rect x="808" y="715" width="27.900000000000002" height="27.900000000000002" transform="rotate(9,819.95,726.95)"/><rect x="808" y="746" width="27.900000000000002" height="27.900000000000002" transform="rotate(-5.625,819.95,757.95)"/><rect x="808" y="777" width="27.900000000000002" height="27.900000000000002" transform="rotate(-4.5,819.95,788.95)"/><rect x="808" y="808" width="27.900000000000002" height="27.900000000000002" transform="rotate(7.875,819.95,819.95)"/><rect x="808" y="839" width="27.900000000000002" height="27.900000000000002" transform="rotate(-6.75,819.95,850.95)"/><rect x="808" y="870" width="27.900000000000002" height="27.900000000000002" transform="rotate(6.75,819.95,881.95)"/><rect x="808" y="932" width="27.900000000000002" height="27.900000000000002" transform="rotate(3.375,819.95,943.95)"/><rect x="839" y="312" width="27.900000000000002" height="27.900000000000002" transform="rotate(3.375,850.95,323.95)"/><rect x="839" y="374" width="27.900000000000002" height="27.900000000000002" transform="rotate(-9,850.95,385.95)"/><rect x="839" y="467" width="27.900000000000002" height="27.900000000000002" transform="rotate(-9,850.95,478.95)"/><rect x="839" y="498" width="27.900000000000002" height="27.900000000000002" transform="rotate(-5.625,850.95,509.95)"/><rect x="839" y="560" width="27.900000000000002" height="27.900000000000002" transform="rotate(4.5,850.95,571.95)"/><rect x="839" y="622" width="27.900000000000002" height="27.900000000000002" transform="rotate(6.75,850.95,633.95)"/><rect x="839" y="653" width="27.900000000000002" height="27.900000000000002" transform="rotate(9,850.95,664.95)"/><rect x="839" y="808" width="27.900000000000002" height="27.900000000000002" transform="rotate(-6.75,850.95,819.95)"/><rect x="839" y="870" width="27.900000000000002" height="27.900000000000002" transform="rotate(-6.75,850.95,881.95)"/><rect x="839" y="901" width="27.900000000000002" height="27.900000000000002" transform="rotate(-6.75,850.95,912.95)"/><rect x="870" y="312" width="27.900000000000002" height="27.900000000000002" transform="rotate(3.375,881.95,323.95)"/><rect x="870" y="343" width="27.900000000000002" height="27.900000000000002" transform="rotate(-5.625,881.95,354.95)"/><rect x="870" y="436" width="27.900000000000002" height="27.900000000000002" transform="rotate(4.5,881.95,447.95)"/><rect x="870" y="498" width="27.900000000000002" height="27.900000000000002" transform="rotate(5.625,881.95,509.95)"/><rect x="870" y="529" width="27.900000000000002" height="27.900000000000002" transform="rotate(-9,881.95,540.95)"/><rect x="870" y="560" width="27.900000000000002" height="27.900000000000002" transform="rotate(-7.875,881.95,571.95)"/><rect x="870" y="684" width="27.900000000000002" height="27.900000000000002" transform="rotate(-5.625,881.95,695.95)"/><rect x="870" y="777" width="27.900000000000002" height="27.900000000000002" transform="rotate(5.625,881.95,788.95)"/><rect x="870" y="932" width="27.900000000000002" height="27.900000000000002" transform="rotate(-5.625,881.95,943.95)"/><rect x="901" y="312" width="27.900000000000002" height="27.900000000000002" transform="rotate(-5.625,912.95,323.95)"/><rect x="901" y="343" width="27.900000000000002" height="27.900000000000002" transform="rotate(-3.375,912.95,354.95)"/><rect x="901" y="374" width="27.900000000000002" height="27.900000000000002" transform="rotate(4.5,912.95,385.95)"/><rect x="901" y="498" width="27.900000000000002" height="27.900000000000002" transform="rotate(-9,912.95,509.95)"/><rect x="901" y="560" width="27.900000000000002" height="27.900000000000002" transform="rotate(9,912.95,571.95)"/><rect x="901" y="653" width="27.900000000000002" height="27.900000000000002" transform="rotate(2.25,912.95,664.95)"/><rect x="901" y="715" width="27.900000000000002" height="27.900000000000002" transform="rotate(4.5,912.95,726.95)"/><rect x="901" y="746" width="27.900000000000002" height="27.900000000000002" transform="rotate(5.625,912.95,757.95)"/><rect x="901" y="808" width="27.900000000000002" height="27.900000000000002" transform="rotate(11.25,912.95,819.95)"/><rect x="901" y="901" width="27.900000000000002" height="27.900000000000002" transform="rotate(4.5,912.95,912.95)"/><rect x="932" y="343" width="27.900000000000002" height="27.900000000000002" transform="rotate(-9,943.95,354.95)"/><rect x="932" y="436" width="27.900000000000002" height="27.900000000000002" transform="rotate(-6.75,943.95,447.95)"/><rect x="932" y="467" width="27.900000000000002" height="27.900000000000002" transform="rotate(3.375,943.95,478.95)"/><rect x="932" y="498" width="27.900000000000002" height="27.900000000000002" transform="rotate(-6.75,943.95,509.95)"/><rect x="932" y="529" width="27.900000000000002" height="27.900000000000002" transform="rotate(5.625,943.95,540.95)"/><rect x="932" y="622" width="27.900000000000002" height="27.900000000000002" transform="rotate(10.125,943.95,633.95)"/><rect x="932" y="653" width="27.900000000000002" height="27.900000000000002" transform="rotate(-5.625,943.95,664.95)"/><rect x="932" y="684" width="27.900000000000002" height="27.900000000000002" transform="rotate(-7.875,943.95,695.95)"/><rect x="932" y="746" width="27.900000000000002" height="27.900000000000002" transform="rotate(6.75,943.95,757.95)"/><rect x="932" y="777" width="27.900000000000002" height="27.900000000000002" transform="rotate(-11.25,943.95,788.95)"/><rect x="932" y="839" width="27.900000000000002" height="27.900000000000002" transform="rotate(2.25,943.95,850.95)"/><rect x="932" y="901" width="27.900000000000002" height="27.900000000000002" transform="rotate(6.75,943.95,912.95)"/></clipPath><clipPath id="clip-path-corners-square-color-0-0"><path d="m 62 62 m 0 0 v 217 h 217 v -217 h -217 z m 108.5 189.875 c -44.937 0 -81.375 -36.438 -81.375 -81.375 c 0 -44.937 36.438 -81.375 81.375 -81.375 s 81.375 36.438 81.375 81.375 c 0 44.937 -36.438 81.375 -81.375 81.375 z"/></clipPath><clipPath id="clip-path-corners-dot-color-0-0"><path d="m 124 124 m 93 0 l -34.875 0 l -11.625 11.625 l -11.625 -11.625 l -34.875 0 l 0 34.875 l 11.625 11.625 l -11.625 11.625 l 0 34.875 l 34.875 0 l 11.625 -11.625 l 11.625 11.625 l 34.875 0 l 0 -34.875 l -11.625 -11.625 l 11.625 -11.625 z"/></clipPath><clipPath id="clip-path-corners-square-color-1-0"><path d="m 744 62 m 0 0 v 217 h 217 v -217 h -217 z m 108.5 189.875 c -44.937 0 -81.375 -36.438 -81.375 -81.375 c 0 -44.937 36.438 -81.375 81.375 -81.375 s 81.375 36.438 81.375 81.375 c 0 44.937 -36.438 81.375 -81.375 81.375 z"/></clipPath><clipPath id="clip-path-corners-dot-color-1-0"><path d="m 806 124 m 93 0 l -34.875 0 l -11.625 11.625 l -11.625 -11.625 l -34.875 0 l 0 34.875 l 11.625 11.625 l -11.625 11.625 l 0 34.875 l 34.875 0 l 11.625 -11.625 l 11.625 11.625 l 34.875 0 l 0 -34.875 l -11.625 -11.625 l 11.625 -11.625 z"/></clipPath><clipPath id="clip-path-corners-square-color-0-1"><path d="m 62 744 m 0 0 v 217 h 217 v -217 h -217 z m 108.5 189.875 c -44.937 0 -81.375 -36.438 -81.375 -81.375 c 0 -44.937 36.438 -81.375 81.375 -81.375 s 81.375 36.438 81.375 81.375 c 0 44.937 -36.438 81.375 -81.375 81.375 z"/></clipPath><clipPath id="clip-path-corners-dot-color-0-1"><path d="m 124 806 m 93 0 l -34.875 0 l -11.625 11.625 l -11.625 -11.625 l -34.875 0 l 0 34.875 l 11.625 11.625 l -11.625 11.625 l 0 34.875 l 34.875 0 l 11.625 -11.625 l 11.625 11.625 l 34.875 0 l 0 -34.875 l -11.625 -11.625 l 11.625 -11.625 z"/></clipPath></defs><rect x="0" y="0" height="1024" width="1024" clip-path="url('#clip-path-background-color')" fill="#ffffff"/><rect x="62" y="62" height="899" width="899" clip-path="url('#clip-path-dot-color')" fill="#000000"/><rect x="62" y="62" height="217" width="217" clip-path="url('#clip-path-corners-square-color-0-0')" fill="#000000"/><rect x="124" y="124" height="93" width="93" clip-path="url('#clip-path-corners-dot-color-0-0')" fill="#000000"/><rect x="744" y="62" height="217" width="217" clip-path="url('#clip-path-corners-square-color-1-0')" fill="#000000"/><rect x="806" y="124" height="93" width="93" clip-path="url('#clip-path-corners-dot-color-1-0')" fill="#000000"/><rect x="62" y="744" height="217" width="217" clip-path="url('#clip-path-corners-square-color-0-1')" fill="#000000"/><rect x="124" y="806" height="93" width="93" clip-path="url('#clip-path-corners-dot-color-0-1')" fill="#000000"/></svg>